<svg width="40" height="40" viewBox="0 0 40 40" fill="none" xmlns="http://www.w3.org/2000/svg">
<path d="M19.9998 6.66675C21.7679 6.66675 23.4636 7.36913 24.7139 8.61937C25.9641 9.86961 26.6665 11.5653 26.6665 13.3334C26.6665 15.1015 25.9641 16.7972 24.7139 18.0475C23.4636 19.2977 21.7679 20.0001 19.9998 20.0001C18.2317 20.0001 16.536 19.2977 15.2858 18.0475C14.0355 16.7972 13.3332 15.1015 13.3332 13.3334C13.3332 11.5653 14.0355 9.86961 15.2858 8.61937C16.536 7.36913 18.2317 6.66675 19.9998 6.66675ZM19.9998 10.0001C19.1158 10.0001 18.2679 10.3513 17.6428 10.9764C17.0177 11.6015 16.6665 12.4494 16.6665 13.3334C16.6665 14.2175 17.0177 15.0653 17.6428 15.6904C18.2679 16.3156 19.1158 16.6667 19.9998 16.6667C20.8839 16.6667 21.7317 16.3156 22.3569 15.6904C22.982 15.0653 23.3332 14.2175 23.3332 13.3334C23.3332 12.4494 22.982 11.6015 22.3569 10.9764C21.7317 10.3513 20.8839 10.0001 19.9998 10.0001ZM19.9998 21.6667C24.4498 21.6667 33.3332 23.8834 33.3332 28.3334V33.3334H6.6665V28.3334C6.6665 23.8834 15.5498 21.6667 19.9998 21.6667ZM19.9998 24.8334C15.0498 24.8334 9.83317 27.2667 9.83317 28.3334V30.1667H30.1665V28.3334C30.1665 27.2667 24.9498 24.8334 19.9998 24.8334Z" fill="#787878"/>
</svg>
